#!OML:ASF F:\VICON\USERDATA\INSTALL\Justin_Nancy\Justin_Nancy.ASF
:FULLY-SPECIFIED
:DEGREES
130
root 2.93874 17.0807 6.5855 -8.45935 -49.0203 19.4631
lowerback 8.59058 1.28891 1.6061
upperback 0.550798 1.90981 1.26768
thorax -4.2363 0.919426 0.181784
lowerneck -10.7485 -14.2257 -16.3739
upperneck 12.0162 -18.6304 12.302
head 8.17596 -8.81181 4.31837
rclavicle -7.55382e-015 -3.81667e-014
rhumerus -26.0912 19.0366 -88.5876
rradius 115.008
rwrist -7.54658
rhand -11.6141 21.3095
rfingers 7.12502
rthumb 14.4288 -8.16895
lclavicle -7.55382e-015 -3.81667e-014
lhumerus -68.6384 -4.80963 83.1461
lradius 97.8125
lwrist 17.5311
lhand -19.5301 4.08616
lfingers 7.12502
lthumb 6.79346 33.9572
rfemur -4.63895 5.9831 27.8438
rtibia 38.9013
rfoot -0.222904 9.21619
rtoes 26.38
lfemur -27.6774 -6.57928 -17.7217
ltibia 54.9273
lfoot -10.9332 -0.235249
ltoes -16.7827
131
root 2.64481 17.1436 6.71933 -7.88251 -49.3979 19.0249
lowerback 8.72239 1.49142 1.8644
upperback 0.588402 2.20431 1.23702
thorax -4.25792 1.05938 -0.0331583
lowerneck -10.6899 -14.4295 -16.6079
upperneck 11.8136 -18.9334 12.7026
head 8.21073 -8.93866 4.43086
rclavicle -3.57812e-015 0
rhumerus -26.3187 18.5837 -89.208
rradius 115.701
rwrist -7.71567
rhand -12.505 21.2203
rfingers 7.12502
rthumb 13.5703 -8.31745
lclavicle -3.57812e-015 0
lhumerus -69.1227 -4.99882 83.9103
lradius 98.2983
lwrist 17.9668
lhand -18.8891 4.61688
lfingers 7.12502
lthumb 7.41222 34.467
rfemur -3.34189 6.08457 28.184
rtibia 37.2645
rfoot 3.40934 10.2938
rtoes 28.1833
lfemur -29.2134 -6.54435 -17.7699
ltibia 53.1663
lfoot -11.2673 -1.05238
ltoes -17.3097
132
root 2.35127 17.1956 6.85507 -7.32536 -49.7195 18.596
lowerback 8.87911 1.61899 2.11053
upperback 0.558456 2.40184 1.2113
thorax -4.36323 1.15056 -0.226954
lowerneck -10.5057 -14.3019 -16.7963
upperneck 11.6293 -18.7967 13.056
head 8.15604 -8.868 4.60972
rclavicle 1.37559e-013 6.36111e-015
rhumerus -26.8003 18.3831 -90.0583
rradius 116.271
rwrist -7.60111
rhand -13.3089 21.0674
rfingers 7.12502
rthumb 12.7955 -8.52044
lclavicle 1.37559e-013 6.36111e-015
lhumerus -69.6364 -4.84212 84.5836
lradius 98.7737
lwrist 18.5969
lhand -18.6559 4.72953
lfingers 7.12502
lthumb 7.63726 34.5716
rfemur -2.16176 6.21439 28.5217
rtibia 35.6693
rfoot 7.24936 11.3738
rtoes 29.5099
lfemur -30.5962 -6.37259 -17.9459
ltibia 51.237
lfoot -11.4818 -1.60687
ltoes -17.7769
133
root 2.04876 17.2484 6.98862 -7.18944 -49.9605 18.8151
lowerback 8.77054 1.79756 1.95967
upperback 0.60011 2.61095 0.980275
thorax -4.2511 1.25698 -0.4029
lowerneck -10.0023 -13.9905 -16.5656
upperneck 11.0236 -18.4348 13.2156
head 7.81122 -8.70891 4.73463
rclavicle 5.60573e-014 6.36111e-015
rhumerus -27.3895 18.067 -90.8689
rradius 116.713
rwrist -7.18605
rhand -13.6976 21.1916
rfingers 7.12502
rthumb 12.4206 -8.41937
lclavicle 5.60573e-014 6.36111e-015
lhumerus -69.704 -4.98335 85.085
lradius 99.0901
lwrist 19.289
lhand -18.5835 4.61505
lfingers 7.12502
lthumb 7.70716 34.4546
rfemur -1.11145 6.4304 28.3893
rtibia 34.0387
rfoot 11.2232 12.0622
rtoes 29.7272
lfemur -31.9255 -5.98733 -18.7211
ltibia 49.1248
lfoot -11.8564 -2.05967
ltoes -20.7792
134
root 1.73899 17.2999 7.12023 -6.74269 -50.4505 18.5965
lowerback 8.83056 2.05645 1.86948
upperback 0.540944 2.94943 0.979186
thorax -4.34434 1.42484 -0.398192
lowerneck -9.74863 -13.5409 -15.9151
upperneck 10.6943 -17.7689 12.4064
head 7.41573 -8.43928 4.52035
rclavicle -2.74323e-014 -2.8625e-014
rhumerus -28.4041 17.9141 -91.3664
rradius 117.139
rwrist -6.67155
rhand -14.2508 21.7102
rfingers 7.12502
rthumb 11.8872 -7.93236
lclavicle -2.74323e-014 -2.8625e-014
lhumerus -69.7315 -4.96933 85.8285
lradius 99.3891
lwrist 19.6379
lhand -18.5919 4.67838
lfingers 7.12502
lthumb 7.69903 34.5182
rfemur -0.0462167 6.82226 28.5696
rtibia 32.3062
rfoot 15.6517 12.3071
rtoes 29.4464
lfemur -33.1828 -6.1984 -18.7113
ltibia 46.8658
lfoot -11.7929 -3.2449
ltoes -18.0963
135
root 1.43181 17.3424 7.25415 -6.29156 -50.8842 18.2596
lowerback 9.10692 2.20701 1.69204
upperback 0.444427 3.1482 1.14414
thorax -4.61524 1.5243 -0.166726
lowerneck -10.0971 -13.2269 -15.4468
upperneck 11.0539 -17.2018 11.294
head 7.35801 -8.21028 4.16727
rclavicle -7.87187e-014 -6.36111e-015
rhumerus -29.3408 18.092 -91.7119
rradius 117.433
rwrist -6.2448
rhand -14.3838 21.7009
rfingers 7.12502
rthumb 11.759 -7.94902
lclavicle -7.87187e-014 -6.36111e-015
lhumerus -69.9319 -4.4492 86.6249
lradius 99.966
lwrist 19.8814
lhand -18.7272 4.69796
lfingers 7.12502
lthumb 7.56845 34.5426
rfemur 0.892536 6.99024 28.8237
rtibia 30.6545
rfoot 20.0159 12.8108
rtoes 26.5144
lfemur -34.2378 -6.75263 -18.4812
ltibia 44.4288
lfoot -10.8943 -4.56276
ltoes -13.2761
136
root 1.11893 17.3765 7.39314 -6.08968 -51.1622 18.1914
lowerback 9.17971 2.34484 1.58928
upperback 0.463667 3.31857 1.06695
thorax -4.63497 1.60972 -0.213818
lowerneck -10.0152 -13.2154 -15.3316
upperneck 11.0265 -17.1729 11.0598
head 7.29809 -8.21169 4.08697
rclavicle -1.20066e-013 3.81667e-014
rhumerus -29.9703 17.9649 -92.2486
rradius 117.476
rwrist -5.6721
rhand -14.0272 21.6894
rfingers 7.12502
rthumb 12.1029 -7.94052
lclavicle -1.20066e-013 3.81667e-014
lhumerus -69.9024 -4.17041 87.2313
lradius 100.559
lwrist 20.2351
lhand -18.7562 4.72033
lfingers 7.12502
lthumb 7.54046 34.5659
rfemur 1.85149 6.99116 28.8251
rtibia 29.1706
rfoot 23.9955 13.2021
rtoes 23.9779
lfemur -34.9951 -7.40253 -18.5365
ltibia 41.8645
lfoot -9.79172 -5.29538
ltoes -10.3634
